<svg width="1340" height="521" viewBox="0 0 1340 521" fill="none" xmlns="http://www.w3.org/2000/svg">
<path d="M971.637 2.51737C970.138 2.51737 968.656 2.87103 967.326 3.57834L841.745 76.0943C840.751 76.6669 840.162 77.3742 840.162 77.9973C840.196 78.2667 840.313 78.5361 840.482 78.755C840.65 78.974 840.869 79.1593 841.139 79.2603L967.949 152.467C969.818 153.545 973.237 153.376 975.426 152.113L1101.01 79.5971C1102 79.0245 1102.59 78.3174 1102.59 77.6943C1102.56 77.4248 1102.44 77.1552 1102.27 76.9363C1102.1 76.7174 1101.88 76.5491 1101.61 76.4312L974.803 3.22454C973.826 2.71932 972.732 2.48368 971.62 2.51737H971.637ZM971.132 155.161C969.684 155.195 968.235 154.858 966.955 154.185L840.145 80.9781C839.572 80.7087 839.101 80.2877 838.764 79.7656C838.427 79.2436 838.225 78.6372 838.191 78.0141C838.191 76.65 839.135 75.3364 840.751 74.3933L966.332 1.87741C969.162 0.260705 973.304 0.0921578 975.78 1.52362L1102.59 74.7303C1103.16 74.9997 1103.63 75.4207 1103.99 75.9428C1104.32 76.4648 1104.53 77.0712 1104.56 77.6943C1104.56 79.0584 1103.62 80.3718 1102 81.3148L976.42 153.831C974.803 154.724 972.984 155.178 971.149 155.161H971.132Z" fill="#1B69FF"/>
<path d="M369.5 152.484C371.352 153.561 374.788 153.393 376.977 152.13L502.558 79.6139C503.552 79.0413 504.141 78.334 504.141 77.7109C504.107 77.4414 503.989 77.1721 503.821 76.9531C503.653 76.7342 503.434 76.5489 503.164 76.4478L376.354 3.24139C374.501 2.16358 371.066 2.33213 368.877 3.59518L243.296 76.1111C242.302 76.6837 241.713 77.391 241.713 78.0141C241.746 78.2836 241.864 78.5529 242.033 78.7719C242.201 78.9908 242.42 79.1593 242.689 79.2772L369.5 152.484ZM372.699 155.178C371.251 155.212 369.803 154.875 368.523 154.201L241.713 80.9949C241.14 80.7255 240.668 80.3045 240.315 79.7825C239.978 79.2604 239.776 78.6541 239.742 78.031C239.742 76.6669 240.685 75.3533 242.302 74.4102L367.883 1.89426C370.695 0.27755 374.855 0.109004 377.331 1.54046L504.141 74.7471C504.714 75.0166 505.185 75.4375 505.539 75.9596C505.876 76.4817 506.078 77.0878 506.111 77.7277C506.111 79.0918 505.168 80.4055 503.552 81.3485L377.971 153.865C376.354 154.757 374.535 155.212 372.699 155.195V155.178Z" fill="#1B69FF"/>
<path d="M670.826 163.077C668.165 163.06 665.538 163.717 663.197 164.98L449.135 288.557C447.232 289.668 446.121 291.049 446.121 292.363C446.188 292.952 446.407 293.508 446.744 293.979C447.097 294.451 447.552 294.838 448.091 295.074L664.224 419.864C667.576 421.783 673.689 421.514 677.596 419.257L891.658 295.664C893.561 294.552 894.673 293.171 894.673 291.857C894.605 291.268 894.386 290.712 894.049 290.241C893.696 289.769 893.241 289.382 892.702 289.146L676.569 164.357C674.8 163.43 672.83 162.993 670.826 163.043V163.077ZM669.984 423.282C667.609 423.35 665.269 422.794 663.18 421.682L447.047 296.893C446.188 296.489 445.447 295.849 444.908 295.04C444.369 294.249 444.066 293.323 444.016 292.363C444.016 290.275 445.498 288.237 448.074 286.755L662.136 163.161C666.767 160.483 673.554 160.231 677.613 162.571L893.746 287.361C894.605 287.765 895.346 288.405 895.885 289.197C896.424 289.988 896.727 290.914 896.778 291.874C896.778 293.963 895.296 296 892.719 297.499L678.657 421.093C675.996 422.558 673.015 423.299 669.984 423.282Z" fill="#1B69FF"/>
<path d="M944.674 473.417C946.324 474.781 947.284 476.802 947.284 478.941H948.244C948.244 476.516 947.166 474.209 945.28 472.676L944.674 473.417ZM1337.8 294.754C1339.18 293.036 1339.77 290.813 1339.45 288.641L1338.51 288.776C1338.8 290.695 1338.27 292.649 1337.06 294.165L1337.8 294.754ZM947.284 500.092C947.284 505.313 952.151 509.203 957.237 507.924L957.001 506.997C952.538 508.109 948.244 504.707 948.244 500.092H947.284ZM1330.44 254.235C1332.51 255.296 1333.95 257.283 1334.28 259.591L1335.23 259.456C1334.86 256.846 1333.22 254.589 1330.88 253.393L1330.44 254.252V254.235ZM1339.45 288.624L1335.23 259.456L1334.28 259.591L1338.51 288.759L1339.45 288.624ZM1324.97 309.439C1329.64 304.757 1334.97 298.274 1337.8 294.754L1337.06 294.165C1334.23 297.684 1328.93 304.134 1324.3 308.782L1324.97 309.456V309.439ZM1330.88 253.376L1050.67 110.449L1050.23 111.308L1330.44 254.235L1330.88 253.376ZM957.237 507.924C1052.84 484.043 1213.96 420.925 1324.99 309.439L1324.31 308.765C1213.47 420.082 1052.54 483.134 957.018 506.997L957.254 507.924H957.237ZM947.284 478.941V500.092H948.244V478.941H947.284ZM800.82 354.858L944.674 473.417L945.28 472.676L801.427 354.117L800.82 354.858Z" fill="#1B69FF"/>
<path d="M7.69222 256.711C5.33452 257.923 3.71781 260.197 3.36416 262.824L4.30724 262.959C4.62721 260.651 6.05867 258.631 8.13008 257.57L7.69222 256.728V256.711ZM0.0802292 286.519C-0.239744 288.826 0.400197 291.116 1.94954 292.868L2.67369 292.228C1.32644 290.695 0.753853 288.674 1.0233 286.637L0.0802292 286.502V286.519ZM439.959 512.555C439.723 517.152 435.328 520.402 430.899 519.224L430.646 520.15C435.682 521.497 440.633 517.809 440.902 512.605L439.942 512.555H439.959ZM331.438 492.986C370.458 504.033 412.475 515.317 430.646 520.15L430.899 519.224C412.728 514.39 370.71 503.107 331.707 492.06L331.455 492.986H331.438ZM116.837 396.926C141.727 412.672 182.482 433.033 223.438 451.271C264.395 469.526 305.604 485.677 331.438 492.986L331.69 492.06C305.924 484.768 264.765 468.634 223.826 450.396C182.886 432.157 142.182 411.814 117.342 396.101L116.837 396.91V396.926ZM443.31 487.883C443.344 487.731 443.479 487.462 443.765 487.041C444.035 486.62 444.405 486.115 444.893 485.492C445.853 484.262 447.201 482.662 448.902 480.742C452.287 476.903 457.036 471.8 462.677 465.889C473.961 454.05 488.831 438.927 503.634 424.04C518.437 409.136 533.189 394.468 544.237 383.521C549.76 378.048 554.358 373.501 557.575 370.335C559.191 368.752 560.454 367.506 561.313 366.647C561.751 366.226 562.071 365.906 562.29 365.687C562.408 365.569 562.492 365.502 562.543 365.434C562.576 365.401 562.593 365.384 562.61 365.367C562.61 365.367 562.61 365.367 562.273 365.03C561.936 364.693 561.936 364.693 561.936 364.693C561.936 364.693 561.903 364.727 561.869 364.761C561.818 364.811 561.734 364.895 561.616 365.013C561.397 365.232 561.061 365.552 560.64 365.973C559.781 366.815 558.518 368.062 556.901 369.661C553.684 372.844 549.087 377.374 543.563 382.848C532.516 393.794 517.763 408.479 502.96 423.366C488.157 438.27 473.287 453.393 461.987 465.232C456.345 471.16 451.596 476.263 448.194 480.119C446.493 482.039 445.129 483.656 444.152 484.919C443.664 485.542 443.277 486.081 442.99 486.536C442.704 486.974 442.502 487.344 442.418 487.647L443.344 487.9L443.31 487.883ZM440.885 512.622C441.104 508.345 441.424 503.225 441.828 498.644C442.233 494.047 442.721 490.022 443.294 487.883L442.367 487.63C441.778 489.87 441.273 493.979 440.869 498.56C440.464 503.157 440.144 508.277 439.926 512.572L440.885 512.622ZM1.91587 292.885C13.3844 305.902 67.1567 365.535 116.82 396.943L117.325 396.135C67.7967 364.811 14.1085 305.279 2.62317 292.261L1.89902 292.901L1.91587 292.885ZM3.33048 262.841L0.046547 286.536L0.989622 286.67L4.27356 262.975L3.33048 262.841ZM291.205 110.955L7.65854 256.744L8.0964 257.587L291.643 111.797L291.205 110.955Z" fill="#1B69FF"/>
</svg>
