<svg width="50" height="91" viewBox="0 0 50 91" fill="none" xmlns="http://www.w3.org/2000/svg">
<path fill-rule="evenodd" clip-rule="evenodd" d="M1.375 35.2964V89.6133L43.6166 65.4223V11.1047C29.5361 19.1647 15.4555 27.2287 1.375 35.2964Z" fill="white" stroke="#D3E5FB"/>
<path fill-rule="evenodd" clip-rule="evenodd" d="M8.57393 48.6394C8.47899 48.6636 8.38733 48.699 8.30093 48.7449C7.9846 48.9636 7.72122 49.249 7.52938 49.5808C7.33755 49.9126 7.22208 50.2825 7.19151 50.6638C7.18428 50.7686 7.20488 50.8734 7.25123 50.9679C7.34445 50.9358 7.43562 50.8982 7.52423 50.8552C7.84322 50.6384 8.10914 50.3534 8.30253 50.0212C8.49591 49.689 8.61177 49.3179 8.64164 48.9355C8.65448 48.8318 8.63097 48.727 8.57481 48.6387L8.57393 48.6394ZM7.23807 52.504C6.96514 52.5069 6.69659 52.4365 6.46066 52.3003C6.18682 52.1266 5.96514 51.8831 5.81886 51.5951C5.67259 51.3072 5.60704 50.9855 5.62922 50.6638C5.65938 50.0102 5.84696 49.3733 6.17629 48.8065C6.50561 48.2396 6.96716 47.7594 7.52209 47.4059C7.78579 47.2115 8.10093 47.0978 8.42889 47.0788C8.75686 47.0598 9.08332 47.1362 9.36804 47.2988C9.65276 47.4614 9.88339 47.7031 10.0315 47.994C10.1797 48.2849 10.2388 48.6124 10.2018 48.9363C10.1717 49.5908 9.98322 50.2286 9.65224 50.7957C9.32127 51.3627 8.85748 51.8424 8.30021 52.1942C7.97985 52.3891 7.61378 52.496 7.23807 52.504Z" fill="#345BE4"/>
<path fill-rule="evenodd" clip-rule="evenodd" d="M8.30164 58.0176C7.98523 58.2364 7.72176 58.522 7.52992 58.8539C7.33808 59.1858 7.22269 59.5558 7.19223 59.9372C7.18399 60.0419 7.20465 60.1468 7.25194 60.2406C7.34792 60.2162 7.43986 60.1783 7.52494 60.1279C7.84372 59.9126 8.10964 59.6288 8.30307 59.2978C8.49649 58.9668 8.6124 58.5969 8.64236 58.2154C8.64236 58.0176 8.59592 57.9266 8.57553 57.9122C8.48065 57.9365 8.389 57.9719 8.30253 58.0176H8.30164ZM7.23808 61.7767C6.9652 61.7785 6.69688 61.7079 6.46067 61.5724C6.18683 61.3989 5.96516 61.1554 5.81887 60.8675C5.67259 60.5797 5.60702 60.2581 5.62923 59.9365C5.66016 59.2831 5.84811 58.6465 6.17736 58.0798C6.50662 57.513 6.96771 57.0327 7.5221 56.6786C7.78632 56.484 8.10213 56.3703 8.43068 56.3516C8.75922 56.3329 9.08599 56.41 9.37089 56.5734C9.6558 56.7368 9.88639 56.9794 10.034 57.2711C10.1817 57.5629 10.24 57.8912 10.2018 58.2154C10.1704 58.8687 9.9812 59.5048 9.65029 60.0704C9.31938 60.6359 8.85637 61.1144 8.30022 61.4654C7.98016 61.6606 7.61365 61.768 7.23808 61.7767Z" fill="#345BE4"/>
<path fill-rule="evenodd" clip-rule="evenodd" d="M8.57391 67.7668C8.47885 67.7905 8.38714 67.826 8.30091 67.8722C7.98454 68.0909 7.72102 68.3764 7.52919 68.7082C7.33735 69.04 7.22201 69.4098 7.19149 69.7912C7.18416 69.8959 7.20477 70.0008 7.25121 70.0952C7.34717 70.0711 7.43912 70.0334 7.52421 69.9833C7.8432 69.7664 8.10913 69.4814 8.30251 69.1492C8.49589 68.817 8.61175 68.4461 8.64162 68.0636C8.65296 67.9603 8.62955 67.8561 8.5748 67.7675L8.57391 67.7668ZM7.23806 71.6314C6.96504 71.6341 6.69646 71.5635 6.46065 71.427C6.18686 71.2534 5.96513 71.01 5.81885 70.7221C5.67257 70.4343 5.60708 70.1127 5.62921 69.7912C5.66008 69.1377 5.84808 68.5011 6.17734 67.9344C6.5066 67.3676 6.96764 66.8873 7.52208 66.5332C7.78572 66.3389 8.10081 66.2253 8.4287 66.2062C8.75659 66.1872 9.08298 66.2636 9.36767 66.4261C9.65236 66.5886 9.88295 66.8301 10.0312 67.1209C10.1794 67.4117 10.2386 67.7391 10.2018 68.0629C10.1717 68.7175 9.9832 69.3553 9.65222 69.9223C9.32125 70.4894 8.85747 70.9691 8.3002 71.3208C7.97989 71.5159 7.61307 71.6228 7.23735 71.6306L7.23806 71.6314Z" fill="#345BE4"/>
<path fill-rule="evenodd" clip-rule="evenodd" d="M13.7933 47.7027C13.6554 47.7038 13.5199 47.6683 13.4006 47.5998C13.2813 47.5314 13.1826 47.4325 13.1148 47.3135C13.0123 47.1346 12.9849 46.9229 13.0386 46.7242C13.0923 46.5255 13.2228 46.3558 13.4017 46.2518L37.8793 32.2364C38.0583 32.134 38.2709 32.1063 38.4704 32.1595C38.67 32.2127 38.84 32.3423 38.9432 32.5198C39.0464 32.6974 39.0743 32.9083 39.0207 33.1063C38.9671 33.3042 38.8364 33.473 38.6574 33.5754L14.1798 47.5973C14.0621 47.6644 13.929 47.7006 13.7933 47.7027Z" fill="#345BE4"/>
<path fill-rule="evenodd" clip-rule="evenodd" d="M13.7933 57.5496C13.656 57.552 13.5205 57.5178 13.4012 57.4505C13.2818 57.3831 13.183 57.2851 13.1148 57.1668C13.0123 56.988 12.9849 56.7763 13.0386 56.5776C13.0923 56.3789 13.2228 56.2092 13.4017 56.1052L37.8793 42.0839C38.0586 41.9888 38.268 41.9666 38.4635 42.0222C38.659 42.0778 38.8249 42.2067 38.9262 42.3817C39.0274 42.5566 39.0559 42.7638 39.0058 42.9593C38.9556 43.1548 38.8307 43.3232 38.6574 43.4288L14.1798 57.4506C14.0616 57.5157 13.9285 57.5498 13.7933 57.5496Z" fill="#345BE4"/>
<path fill-rule="evenodd" clip-rule="evenodd" d="M13.7964 66.8293C13.6585 66.8304 13.5229 66.7947 13.4036 66.7262C13.2842 66.6576 13.1856 66.5585 13.1179 66.4393C13.016 66.2603 12.9889 66.0488 13.0426 65.8503C13.0962 65.6517 13.2263 65.482 13.4048 65.3776L30.8491 55.3863C31.0288 55.2855 31.2414 55.2591 31.4406 55.313C31.6398 55.3668 31.8097 55.4965 31.913 55.6738C32.0163 55.8512 32.0448 56.0618 31.9925 56.2599C31.9401 56.4581 31.8109 56.6277 31.6331 56.7319L14.1822 66.7238C14.0659 66.7936 13.9323 66.8302 13.7964 66.8293Z" fill="#345BE4"/>
<path d="M44.5497 1.09996L48.5377 3.38432C48.6194 3.44098 48.6843 3.51828 48.7259 3.60816C48.7675 3.69804 48.7842 3.79725 48.7743 3.89566V23.9626C48.7743 33.2706 34.9197 48.4113 34.3278 49.0533C34.2351 49.1547 34.1279 49.242 34.0097 49.3126C33.9141 49.3714 33.8059 49.4068 33.6938 49.4158C33.3102 49.439 27.3252 49.7539 23.1814 47.4175L19.1461 45.1064C17.9471 44.4916 16.9467 43.5543 16.2595 42.4019C15.5723 41.2494 15.226 39.9283 15.2601 38.5897V18.5221C15.2857 18.2477 15.3735 17.9827 15.5169 17.7469C15.6604 17.511 15.8558 17.3103 16.0885 17.16C21.6213 13.9945 26.7756 9.51022 29.5485 5.46C29.8288 5.0505 30.2213 4.8295 30.5023 4.91472C33.2687 5.78861 38.4236 4.36875 44.0001 1.17436C44.076 1.11019 44.169 1.06913 44.2678 1.05632C44.3666 1.0435 44.467 1.05939 44.557 1.10207L44.5497 1.09996Z" fill="white"/>
<path d="M16.082 17.1577C21.6148 13.9922 26.769 9.50785 29.542 5.45763C29.8222 5.04813 30.2147 4.82713 30.4957 4.91235C33.2621 5.78624 38.4171 4.36638 43.9943 1.172C44.07 1.10788 44.1629 1.06694 44.2616 1.05412C44.3603 1.0413 44.4608 1.05717 44.5506 1.09979L48.5384 3.38415C48.4492 3.34277 48.3499 3.32763 48.2523 3.34042C48.1546 3.35322 48.0628 3.39341 47.9874 3.45636C42.4088 6.65074 37.2589 8.07141 34.4874 7.1968C34.2057 7.10869 33.8147 7.33395 33.5337 7.74129C30.7615 11.7937 25.6058 16.2766 20.0737 19.4413C19.8406 19.5911 19.6449 19.7916 19.5016 20.0276C19.3583 20.2636 19.2711 20.529 19.2467 20.8034V40.874C19.2132 42.2228 19.5655 43.5534 20.2628 44.7118C20.9601 45.8702 21.9737 46.809 23.1865 47.4195H23.1816L19.1461 45.1083C17.9471 44.4935 16.9467 43.5562 16.2595 42.4038C15.5723 41.2514 15.226 39.9303 15.2601 38.5918V18.5191C15.285 18.2454 15.3718 17.9808 15.5141 17.7451C15.6564 17.5094 15.8505 17.3086 16.082 17.1577Z" fill="#4069FA"/>
<path d="M32.6595 49.7654C33.2696 49.7654 33.6532 49.7437 33.7144 49.7394C33.8786 49.7273 34.0375 49.6766 34.1781 49.5914C34.3238 49.5053 34.4561 49.3985 34.5705 49.2743C35.1682 48.6243 49.1073 33.3991 49.1051 23.9604V3.89567C49.116 3.73975 49.0845 3.58375 49.0139 3.44401C48.9434 3.30427 48.8364 3.18593 48.7039 3.10124L44.7159 0.816789L44.6962 0.806739C44.555 0.738781 44.3975 0.711407 44.2414 0.727746C44.0853 0.744085 43.937 0.803433 43.8132 0.899132C38.3576 4.02563 33.2827 5.44913 30.5971 4.60052C30.3329 4.5617 30.0631 4.60562 29.8253 4.72615C29.5876 4.84668 29.3937 5.03784 29.2706 5.27293C26.5224 9.28849 21.4082 13.7345 15.9176 16.8755C15.6348 17.0542 15.3979 17.2957 15.2255 17.581C15.0532 17.8663 14.9501 18.1876 14.9246 18.5193V38.5905C14.8866 39.9831 15.2443 41.3584 15.9569 42.5589C16.6695 43.7594 17.7082 44.7368 18.9542 45.3794L18.9768 45.3938L23.0128 47.7049C23.0287 47.7138 23.0451 47.7216 23.0622 47.7281C26.3142 49.538 30.6742 49.7654 32.6595 49.7654ZM44.4029 1.39099L48.3734 3.666C48.409 3.68695 48.4462 3.76492 48.4462 3.89276V23.9611C48.4462 33.1485 34.6724 48.1961 34.0849 48.8309C34.0148 48.9078 33.9339 48.9741 33.8446 49.028C33.7929 49.0606 33.7345 49.0811 33.6737 49.088C33.4203 49.1039 27.4251 49.4339 23.3425 47.1329C23.3282 47.1249 23.3135 47.118 23.2982 47.112L19.3269 44.8363L19.3036 44.8211C18.1553 44.2344 17.197 43.3384 16.5386 42.2359C15.8802 41.1335 15.5485 39.8693 15.5814 38.5883V18.517C15.6065 18.2994 15.679 18.0899 15.7939 17.9028C15.9088 17.7158 16.0634 17.5557 16.2468 17.4337C21.8145 14.2458 27.0132 9.7233 29.8131 5.63263C30.0315 5.31558 30.2963 5.18772 30.3953 5.21589C33.2506 6.11722 38.5236 4.67352 44.1547 1.44591C44.2726 1.37369 44.3511 1.35701 44.3788 1.37362L44.3999 1.38808L44.4029 1.39099Z" fill="#345BE4"/>
<path d="M34.012 31.6413L42.9665 16.1294L41.755 15.4375L34.0113 28.8708L29.2356 26.1408L28.0234 28.2165L34.012 31.6413Z" fill="#345BE4"/>
</svg>
